<?xml version="1.0" standalone="no"?>
<!DOCTYPE svg PUBLIC "-//W3C//DTD SVG 20010904//EN"
 "http://www.w3.org/TR/2001/REC-SVG-20010904/DTD/svg10.dtd">
<svg version="1.0" xmlns="http://www.w3.org/2000/svg"
 width="2480.000000pt" height="2480.000000pt" viewBox="0 0 2480.000000 2480.000000"
 preserveAspectRatio="xMidYMid meet">
<metadata>
Created by potrace 1.14, written by Peter Selinger 2001-2017
</metadata>
<g transform="translate(0.000000,2480.000000) scale(0.100000,-0.100000)"
fill="#000000" stroke="none">
<path d="M11979 24285 c-2 -2 -71 -6 -154 -10 -82 -3 -168 -8 -190 -10 -22 -2
-85 -6 -140 -10 -55 -4 -113 -8 -130 -10 -16 -1 -64 -6 -105 -9 -83 -8 -102
-10 -275 -30 -16 -2 -55 -7 -85 -10 -30 -4 -66 -9 -80 -11 -14 -2 -45 -7 -70
-10 -25 -3 -56 -8 -70 -10 -14 -3 -45 -7 -70 -10 -25 -3 -124 -19 -220 -36
-96 -16 -188 -32 -205 -35 -173 -29 -694 -150 -945 -220 -525 -145 -1200 -384
-1610 -571 -30 -14 -91 -41 -135 -60 -213 -93 -771 -378 -930 -475 -16 -10
-37 -21 -45 -25 -109 -51 -623 -376 -925 -584 -92 -63 -476 -347 -485 -358 -3
-3 -34 -28 -70 -56 -36 -27 -74 -57 -85 -66 -11 -10 -65 -54 -120 -99 -130
-107 -374 -318 -421 -364 -6 -6 -57 -54 -114 -106 -115 -105 -466 -454 -575
-571 -72 -78 -205 -224 -238 -262 -10 -12 -33 -38 -50 -58 -18 -19 -52 -60
-77 -89 -25 -30 -62 -74 -84 -99 -21 -25 -47 -56 -57 -69 -11 -12 -70 -87
-133 -165 -531 -668 -977 -1373 -1356 -2142 -107 -218 -310 -663 -310 -679 0
-3 -11 -29 -24 -58 -13 -29 -27 -64 -31 -78 -4 -14 -18 -47 -30 -75 -12 -27
-43 -108 -69 -180 -26 -71 -52 -139 -56 -150 -35 -78 -257 -778 -275 -869 -3
-10 -12 -44 -21 -75 -9 -31 -17 -63 -19 -71 -2 -8 -19 -78 -39 -155 -28 -114
-69 -292 -92 -400 -2 -11 -6 -31 -9 -45 -8 -38 -15 -72 -20 -105 -3 -16 -12
-64 -20 -105 -21 -105 -35 -180 -41 -225 -1 -11 -5 -33 -8 -50 -4 -25 -34
-223 -51 -340 -2 -16 -7 -57 -10 -90 -3 -33 -8 -67 -10 -75 -2 -8 -7 -44 -10
-80 -3 -36 -7 -81 -10 -100 -5 -42 -16 -149 -20 -205 -2 -22 -6 -76 -9 -120
-4 -44 -9 -107 -11 -140 -27 -347 -27 -1204 0 -1565 12 -170 17 -228 20 -250
2 -14 7 -65 11 -115 3 -49 8 -98 10 -107 1 -9 5 -45 9 -80 9 -92 11 -106 41
-323 9 -66 18 -129 19 -140 2 -11 12 -76 24 -145 12 -69 24 -138 26 -155 3
-16 7 -39 10 -51 3 -12 7 -39 11 -60 25 -168 143 -675 228 -979 272 -982 690
-1968 1187 -2808 130 -219 144 -243 163 -272 11 -16 34 -52 51 -80 18 -27 86
-131 151 -229 65 -98 124 -186 129 -195 6 -9 12 -18 15 -21 3 -3 32 -43 65
-90 47 -69 294 -400 342 -460 167 -208 360 -437 517 -614 168 -189 544 -570
746 -756 63 -58 129 -118 146 -135 18 -16 43 -39 56 -50 86 -74 257 -221 280
-240 119 -104 589 -465 766 -589 151 -105 472 -318 553 -366 14 -8 109 -65
210 -126 383 -231 886 -492 1299 -672 142 -62 196 -85 300 -126 63 -26 124
-51 135 -55 23 -10 55 -23 70 -27 6 -1 62 -23 125 -47 63 -24 205 -75 315
-112 110 -37 209 -71 220 -75 162 -65 1039 -288 1350 -344 17 -3 39 -8 50 -10
11 -2 40 -7 65 -11 25 -4 54 -9 65 -12 11 -2 36 -6 55 -9 19 -2 42 -6 50 -9 8
-2 38 -7 65 -11 28 -3 59 -8 70 -10 11 -2 40 -7 64 -10 25 -3 47 -7 50 -9 3
-1 35 -6 71 -10 36 -4 73 -9 82 -10 9 -2 44 -6 77 -10 33 -3 69 -8 80 -10 11
-2 51 -7 88 -11 37 -3 79 -8 93 -10 14 -1 61 -6 105 -9 44 -3 91 -8 104 -10
13 -2 72 -7 130 -10 58 -4 120 -8 136 -10 207 -27 1148 -27 1550 0 201 13 523
43 645 60 19 3 56 7 82 10 26 3 64 7 85 10 94 14 110 16 143 21 38 6 267 42
315 50 17 2 66 12 110 20 44 9 94 18 110 21 17 2 84 16 150 30 66 14 129 27
140 29 49 9 440 106 540 133 519 140 947 286 1470 501 136 56 167 70 345 150
47 22 96 44 110 49 14 6 32 15 40 20 8 4 116 58 240 120 657 325 1254 694
1864 1154 86 65 212 161 216 166 3 4 48 40 100 82 52 42 109 88 125 102 17 14
53 44 80 68 110 92 179 153 294 258 14 13 64 58 110 100 168 153 524 513 721
730 110 121 171 191 280 321 25 29 50 58 55 64 67 70 410 517 572 746 217 307
613 934 613 971 0 5 4 9 8 9 4 0 13 12 19 28 7 15 23 45 36 67 114 192 362
692 499 1005 32 74 65 149 72 165 8 17 17 41 21 55 4 14 11 30 15 35 4 6 44
107 89 225 45 118 87 229 94 245 6 17 12 35 14 40 1 6 18 54 37 108 34 92 133
398 161 497 7 25 31 108 53 185 38 130 137 518 147 575 3 14 7 34 10 45 26
110 119 592 131 685 3 25 7 52 9 60 2 8 8 51 15 95 6 44 13 91 15 105 3 14 7
48 10 75 3 28 10 76 15 109 5 32 9 61 8 65 -1 3 1 29 5 56 7 49 12 98 22 205
3 30 7 78 10 105 2 28 7 86 10 130 3 44 8 107 10 140 27 349 27 1230 0 1555
-2 25 -6 83 -10 130 -3 47 -8 101 -10 120 -1 19 -6 69 -9 110 -4 41 -9 89 -11
105 -2 17 -7 57 -10 90 -11 103 -21 185 -35 285 -18 126 -21 145 -27 185 -3
22 -7 49 -9 60 -1 11 -5 36 -9 55 -3 19 -15 87 -26 150 -11 63 -26 147 -34
185 -8 39 -17 86 -20 105 -33 197 -202 862 -286 1130 -76 238 -111 347 -119
365 -4 11 -34 92 -65 180 -160 450 -364 920 -595 1370 -122 238 -146 282 -282
519 -37 66 -68 123 -68 128 0 4 -4 8 -10 8 -5 0 -10 4 -10 9 0 24 -452 723
-485 751 -8 7 -15 17 -15 22 0 20 -464 628 -586 768 -12 14 -54 63 -94 110
-270 317 -675 739 -940 981 -52 48 -107 97 -121 110 -14 13 -58 53 -98 89 -41
36 -79 70 -85 75 -6 6 -38 33 -71 60 -33 28 -62 52 -65 55 -28 31 -383 312
-560 443 -124 92 -236 175 -250 185 -34 26 -379 257 -460 308 -197 125 -448
275 -595 357 -55 30 -129 71 -165 91 -147 81 -681 342 -820 401 -33 14 -89 38
-123 54 -34 16 -161 67 -282 115 -121 48 -229 91 -240 95 -11 4 -42 16 -70 26
-27 9 -113 40 -190 67 -77 27 -174 60 -215 73 -41 13 -118 37 -170 53 -321
103 -1012 277 -1220 308 -19 3 -41 7 -49 10 -8 2 -30 7 -50 10 -20 2 -56 9
-81 14 -105 22 -388 65 -620 95 -25 3 -56 7 -70 9 -14 3 -56 7 -95 11 -38 3
-81 8 -95 10 -14 3 -52 7 -85 10 -83 6 -181 15 -240 20 -27 3 -99 7 -160 10
-60 4 -137 9 -170 11 -69 6 -1011 15 -1016 9z"/>
</g>
</svg>
